mtllib HalfDiamond.mtl
o empty_2
usemtl material6
v 0 -0.01269999984651804 -0.02199704572558403
v 0 -0.02539999969303608 -2.0861623539758511e-10
v 0 0.012699998915195465 -0.02199704572558403
v 0 -0.02539999969303608 -2.0861623539758511e-10
v 0 -0.01269999984651804 0.02199704572558403
v 0 0.012699998915195465 -0.02199704572558403
v 0 0.012699998915195465 -0.02199704572558403
v 0 -0.01269999984651804 0.02199704572558403
v -3.169497354867838e-19 0.02539999969303608 -2.0861623539758511e-10
v 0 -0.01269999984651804 0.02199704572558403
v 0 0.012699998915195465 0.02199704572558403
v -3.169497354867838e-19 0.02539999969303608 -2.0861623539758511e-10
v 0 -0.02539999969303608 -2.0861623539758511e-10
v 0 -0.01269999984651804 -0.02199704572558403
v 0.044194456189870834 -0.0013396873837336898 -0.002320406259968877
v 0.044194456189870834 -0.0026793729048222303 -2.0861623539758511e-10
v 0 -0.02539999969303608 -2.0861623539758511e-10
v 0.044194456189870834 -0.0013396873837336898 -0.002320406259968877
v 0 -0.02539999969303608 -2.0861623539758511e-10
v 0.044194456189870834 -0.0026793729048222303 -2.0861623539758511e-10
v 0 -0.01269999984651804 0.02199704572558403
v 0.044194456189870834 -0.0026793729048222303 -2.0861623539758511e-10
v 0.044194456189870834 -0.0013396873837336898 0.0023204057943075895
v 0 -0.01269999984651804 0.02199704572558403
v 0 -0.01269999984651804 -0.02199704572558403
v 0 0.012699998915195465 -0.02199704572558403
v 0.044194456189870834 0.001339687267318368 -0.002320406259968877
v 0.044194456189870834 -0.0013396873837336898 -0.002320406259968877
v 0 -0.01269999984651804 -0.02199704572558403
v 0.044194456189870834 0.001339687267318368 -0.002320406259968877
v 0 -0.01269999984651804 0.02199704572558403
v 0.044194456189870834 -0.0013396873837336898 0.0023204057943075895
v 0.044194456189870834 0.001339687267318368 0.0023204057943075895
v 0.044194456189870834 -0.0013396873837336898 0.0023204057943075895
v 0.044382769614458084 -0.0012857838300988078 0.0022270448971539736
v 0.044194456189870834 0.001339687267318368 0.0023204057943075895
v 0.044194456189870834 0.001339687267318368 0.0023204057943075895
v 0.044382769614458084 -0.0012857838300988078 0.0022270448971539736
v 0.044382769614458084 0.001285783713683486 0.0022270448971539736
v 0.044382769614458084 -0.0012857838300988078 0.0022270448971539736
v 0.04456271603703499 -0.0012230778811499476 0.002118432894349098
v 0.044382769614458084 0.001285783713683486 0.0022270448971539736
v 0.044382769614458084 0.001285783713683486 0.0022270448971539736
v 0.04456271603703499 -0.0012230778811499476 0.002118432894349098
v 0.04456271603703499 0.001223077648319304 0.002118432894349098
v 0.04456271603703499 -0.0012230778811499476 0.002118432894349098
v 0.04489265754818916 -0.0010730266803875566 0.0018585355719551444
v 0.04456271603703499 0.001223077648319304 0.002118432894349098
v 0.04456271603703499 0.001223077648319304 0.002118432894349098
v 0.04489265754818916 -0.0010730266803875566 0.0018585355719551444
v 0.04489265754818916 0.0010730265639722347 0.0018585355719551444
v 0.04489265754818916 -0.0010730266803875566 0.0018585355719551444
v 0.045175258070230484 -0.0008936348604038358 0.0015478208661079407
v 0.04489265754818916 0.0010730265639722347 0.0018585355719551444
v 0.04489265754818916 0.0010730265639722347 0.0018585355719551444
v 0.045175258070230484 -0.0008936348604038358 0.0015478208661079407
v 0.045175258070230484 0.000893634743988514 0.0015478208661079407
v 0.045175258070230484 -0.0008936348604038358 0.0015478208661079407
v 0.04540279507637024 -0.0006898079882375896 0.001194783952087164
v 0.045175258070230484 0.000893634743988514 0.0015478208661079407
v 0.045175258070230484 0.000893634743988514 0.0015478208661079407
v 0.04540279507637024 -0.0006898079882375896 0.001194783952087164
v 0.04540279507637024 0.0006898078136146069 0.001194783952087164
v 0.04540279507637024 -0.0006898079882375896 0.001194783952087164
v 0.0455690398812294 -0.00046712119365110993 0.0008090761257335544
v 0.04540279507637024 0.0006898078136146069 0.001194783952087164
v 0.04540279507637024 0.0006898078136146069 0.001194783952087164
v 0.0455690398812294 -0.00046712119365110993 0.0008090761257335544
v 0.0455690398812294 0.00046712104813195765 0.0008090761257335544
v 0.0455690398812294 -0.00046712119365110993 0.0008090761257335544
v 0.04566945135593414 -0.0002316590107511729 0.000401246827095747
v 0.0455690398812294 0.00046712104813195765 0.0008090761257335544
v 0.0455690398812294 0.00046712104813195765 0.0008090761257335544
v 0.04566945135593414 -0.0002316590107511729 0.000401246827095747
v 0.04566945135593414 0.00023165886523202062 0.000401246827095747
v 0.04566945135593414 -0.0002316590107511729 0.000401246827095747
v 0.045701347291469574 -7.450577654832813e-11 -2.0861627703094854e-10
v 0.04566945135593414 0.00023165886523202062 0.000401246827095747
v 0.04566945135593414 0.00023165886523202062 0.000401246827095747
v 0.045701347291469574 -7.450577654832813e-11 -2.0861627703094854e-10
v 0.04566945135593414 0.0004633197095245123 -2.0861623539758511e-10
v 0.045701347291469574 -7.450577654832813e-11 -2.0861627703094854e-10
v 0.04566945135593414 0.00023165886523202062 -0.00040124531369656324
v 0.04566945135593414 0.0004633197095245123 -2.0861623539758511e-10
v 0.04566945135593414 0.0004633197095245123 -2.0861623539758511e-10
v 0.04566945135593414 0.00023165886523202062 -0.00040124531369656324
v 0.0455690398812294 0.00046712104813195765 -0.0008090765331871808
v 0.04566945135593414 0.00023165886523202062 -0.00040124531369656324
v 0.0455690398812294 -0.00046712119365110993 -0.0008090765331871808
v 0.0455690398812294 0.00046712104813195765 -0.0008090765331871808
v 0.0455690398812294 0.00046712104813195765 -0.0008090765331871808
v 0.0455690398812294 -0.00046712119365110993 -0.0008090765331871808
v 0.04540279507637024 -0.0006898079882375896 -0.0011947824386879802
v 0 0.012699998915195465 0.02199704572558403
v 0 -0.01269999984651804 0.02199704572558403
v 0.044194456189870834 0.001339687267318368 0.0023204057943075895
v 0 0.012699998915195465 -0.02199704572558403
v -3.169497354867838e-19 0.02539999969303608 -2.0861623539758511e-10
v 0.044194456189870834 0.001339687267318368 -0.002320406259968877
v -3.169497354867838e-19 0.02539999969303608 -2.0861623539758511e-10
v 0.044194456189870834 0.0026793726719915867 -2.0861627703094854e-10
v 0.044194456189870834 0.001339687267318368 -0.002320406259968877
v 0.044194456189870834 0.001339687267318368 -0.002320406259968877
v 0.044194456189870834 0.0026793726719915867 -2.0861627703094854e-10
v 0.044382769614458084 0.001285783713683486 -0.002227045362815261
v 0.044194456189870834 0.0026793726719915867 -2.0861627703094854e-10
v 0.044382769614458084 0.002571569290012121 -2.0861627703094854e-10
v 0.044382769614458084 0.001285783713683486 -0.002227045362815261
v 0.044382769614458084 0.001285783713683486 -0.002227045362815261
v 0.044382769614458084 0.002571569290012121 -2.0861627703094854e-10
v 0.04456271603703499 0.001223077648319304 -0.002118433127179742
v 0.044382769614458084 0.002571569290012121 -2.0861627703094854e-10
v 0.04456271603703499 0.0024461555294692516 -2.0861623539758511e-10
v 0.04456271603703499 0.001223077648319304 -0.002118433127179742
v 0.04456271603703499 0.001223077648319304 -0.002118433127179742
v 0.04456271603703499 0.0024461555294692516 -2.0861623539758511e-10
v 0.04489265754818916 0.0021460531279444695 -2.0861627703094854e-10
v 0 0.012699998915195465 0.02199704572558403
v 0.044194456189870834 0.001339687267318368 0.0023204057943075895
v 0.044194456189870834 0.0026793726719915867 -2.0861627703094854e-10
v 0.044194456189870834 0.001339687267318368 0.0023204057943075895
v 0.044382769614458084 0.001285783713683486 0.0022270448971539736
v 0.044194456189870834 0.0026793726719915867 -2.0861627703094854e-10
v 0.044194456189870834 0.0026793726719915867 -2.0861627703094854e-10
v 0.044382769614458084 0.001285783713683486 0.0022270448971539736
v 0.044382769614458084 0.002571569290012121 -2.0861627703094854e-10
v 0.044382769614458084 0.001285783713683486 0.0022270448971539736
v 0.04456271603703499 0.001223077648319304 0.002118432894349098
v 0.044382769614458084 0.002571569290012121 -2.0861627703094854e-10
v 0.044382769614458084 0.002571569290012121 -2.0861627703094854e-10
v 0.04456271603703499 0.001223077648319304 0.002118432894349098
v 0.04456271603703499 0.0024461555294692516 -2.0861623539758511e-10
v 0.04456271603703499 0.001223077648319304 0.002118432894349098
v 0.04489265754818916 0.0010730265639722347 0.0018585355719551444
v 0.04456271603703499 0.0024461555294692516 -2.0861623539758511e-10
v 0.04456271603703499 0.0024461555294692516 -2.0861623539758511e-10
v 0.04489265754818916 0.0010730265639722347 0.0018585355719551444
v 0.04489265754818916 0.0021460531279444695 -2.0861627703094854e-10
v 0.04489265754818916 0.0010730265639722347 0.0018585355719551444
v 0.045175258070230484 0.000893634743988514 0.0015478208661079407
v 0.04489265754818916 0.0021460531279444695 -2.0861627703094854e-10
v 0.04489265754818916 0.0021460531279444695 -2.0861627703094854e-10
v 0.045175258070230484 0.000893634743988514 0.0015478208661079407
v 0.045175258070230484 0.001787269487977028 -2.0861627703094854e-10
v 0.045175258070230484 0.000893634743988514 0.0015478208661079407
v 0.04540279507637024 0.0006898078136146069 0.001194783952087164
v 0.045175258070230484 0.001787269487977028 -2.0861627703094854e-10
v 0.045175258070230484 0.001787269487977028 -2.0861627703094854e-10
v 0.04540279507637024 0.0006898078136146069 0.001194783952087164
v 0.04540279507637024 0.0013796176062896848 -2.0861627703094854e-10
v 0.04540279507637024 0.0006898078136146069 0.001194783952087164
v 0.0455690398812294 0.00046712104813195765 0.0008090761257335544
v 0.04540279507637024 0.0013796176062896848 -2.0861627703094854e-10
v 0.04540279507637024 0.0013796176062896848 -2.0861627703094854e-10
v 0.0455690398812294 0.00046712104813195765 0.0008090761257335544
v 0.0455690398812294 0.000934240291826427 -2.0861627703094854e-10
v 0.0455690398812294 0.00046712104813195765 0.0008090761257335544
v 0.04566945135593414 0.00023165886523202062 0.000401246827095747
v 0.0455690398812294 0.000934240291826427 -2.0861627703094854e-10
v 0.0455690398812294 0.000934240291826427 -2.0861627703094854e-10
v 0.04566945135593414 0.00023165886523202062 0.000401246827095747
v 0.04566945135593414 0.0004633197095245123 -2.0861623539758511e-10
v -3.169497354867838e-19 0.02539999969303608 -2.0861623539758511e-10
v 0 0.012699998915195465 0.02199704572558403
v 0.044194456189870834 0.0026793726719915867 -2.0861627703094854e-10
v 0.044382769614458084 -0.002571569522842765 -2.0861627703094854e-10
v 0.044194456189870834 -0.0026793729048222303 -2.0861623539758511e-10
v 0.044194456189870834 -0.0013396873837336898 -0.002320406259968877
v 0.044194456189870834 -0.0026793729048222303 -2.0861623539758511e-10
v 0.044382769614458084 -0.002571569522842765 -2.0861627703094854e-10
v 0.044194456189870834 -0.0013396873837336898 0.0023204057943075895
v 0.044382769614458084 -0.002571569522842765 -2.0861627703094854e-10
v 0.044382769614458084 -0.0012857838300988078 0.0022270448971539736
v 0.044194456189870834 -0.0013396873837336898 0.0023204057943075895
v 0.044382769614458084 -0.0012857838300988078 -0.002227045362815261
v 0.044194456189870834 -0.0013396873837336898 -0.002320406259968877
v 0.044194456189870834 0.001339687267318368 -0.002320406259968877
v 0.044194456189870834 -0.0013396873837336898 -0.002320406259968877
v 0.044382769614458084 -0.0012857838300988078 -0.002227045362815261
v 0.044382769614458084 -0.002571569522842765 -2.0861627703094854e-10
v 0.044382769614458084 -0.0012857838300988078 -0.002227045362815261
v 0.04456271603703499 -0.0024461555294692516 -2.0861627703094854e-10
v 0.044382769614458084 -0.002571569522842765 -2.0861627703094854e-10
v 0.044194456189870834 0.001339687267318368 -0.002320406259968877
v 0.044382769614458084 0.001285783713683486 -0.002227045362815261
v 0.044382769614458084 -0.0012857838300988078 -0.002227045362815261
v 0.044382769614458084 0.001285783713683486 -0.002227045362815261
v 0.04456271603703499 -0.0012230778811499476 -0.002118433127179742
v 0.044382769614458084 -0.0012857838300988078 -0.002227045362815261
v 0.044382769614458084 -0.002571569522842765 -2.0861627703094854e-10
v 0.04456271603703499 -0.0024461555294692516 -2.0861627703094854e-10
v 0.044382769614458084 -0.0012857838300988078 0.0022270448971539736
v 0.04456271603703499 -0.0024461555294692516 -2.0861627703094854e-10
v 0.04456271603703499 -0.0012230778811499476 0.002118432894349098
v 0.044382769614458084 -0.0012857838300988078 0.0022270448971539736
v 0.044382769614458084 -0.0012857838300988078 -0.002227045362815261
v 0.04456271603703499 -0.0012230778811499476 -0.002118433127179742
v 0.04456271603703499 -0.0024461555294692516 -2.0861627703094854e-10
v 0.04456271603703499 -0.0012230778811499476 -0.002118433127179742
v 0.04489265754818916 -0.0010730266803875566 -0.0018585359212011099
v 0.04456271603703499 -0.0024461555294692516 -2.0861627703094854e-10
v 0.04456271603703499 -0.0024461555294692516 -2.0861627703094854e-10
v 0.04489265754818916 -0.0010730266803875566 -0.0018585359212011099
v 0.04489265754818916 -0.002146053360775113 -2.0861627703094854e-10
v 0.04489265754818916 -0.0010730266803875566 -0.0018585359212011099
v 0.045175258070230484 -0.0008936348604038358 -0.0015478212153539062
v 0.04489265754818916 -0.002146053360775113 -2.0861627703094854e-10
v 0.04489265754818916 -0.002146053360775113 -2.0861627703094854e-10
v 0.045175258070230484 -0.0008936348604038358 -0.0015478212153539062
v 0.045175258070230484 -0.0017872697208076715 -2.0861627703094854e-10
v 0.045175258070230484 -0.0008936348604038358 -0.0015478212153539062
v 0.04540279507637024 -0.0006898079882375896 -0.0011947824386879802
v 0.045175258070230484 -0.0017872697208076715 -2.0861627703094854e-10
v 0.045175258070230484 -0.0017872697208076715 -2.0861627703094854e-10
v 0.04540279507637024 -0.0006898079882375896 -0.0011947824386879802
v 0.04540279507637024 -0.0013796177227050066 -2.0861627703094854e-10
v 0.04540279507637024 -0.0006898079882375896 -0.0011947824386879802
v 0.0455690398812294 -0.00046712119365110993 -0.0008090765331871808
v 0.04540279507637024 -0.0013796177227050066 -2.0861627703094854e-10
v 0.04540279507637024 -0.0013796177227050066 -2.0861627703094854e-10
v 0.0455690398812294 -0.00046712119365110993 -0.0008090765331871808
v 0.0455690398812294 -0.0009342404082417488 -2.0861627703094854e-10
v 0.0455690398812294 -0.00046712119365110993 -0.0008090765331871808
v 0.04566945135593414 -0.0002316590107511729 -0.00040124531369656324
v 0.0455690398812294 -0.0009342404082417488 -2.0861627703094854e-10
v 0.0455690398812294 -0.0009342404082417488 -2.0861627703094854e-10
v 0.04566945135593414 -0.0002316590107511729 -0.00040124531369656324
v 0.04566945135593414 -0.0004633198550436646 -2.0861623539758511e-10
v 0.04566945135593414 -0.0002316590107511729 -0.00040124531369656324
v 0.045701347291469574 -7.450577654832813e-11 -2.0861627703094854e-10
v 0.04566945135593414 -0.0004633198550436646 -2.0861623539758511e-10
v 0.04566945135593414 -0.0004633198550436646 -2.0861623539758511e-10
v 0.045701347291469574 -7.450577654832813e-11 -2.0861627703094854e-10
v 0.04566945135593414 -0.0002316590107511729 0.000401246827095747
v 0.044382769614458084 0.001285783713683486 -0.002227045362815261
v 0.04456271603703499 0.001223077648319304 -0.002118433127179742
v 0.04456271603703499 -0.0012230778811499476 -0.002118433127179742
v 0.04456271603703499 0.001223077648319304 -0.002118433127179742
v 0.04489265754818916 0.0010730265639722347 -0.0018585359212011099
v 0.04456271603703499 -0.0012230778811499476 -0.002118433127179742
v 0.04456271603703499 -0.0012230778811499476 -0.002118433127179742
v 0.04489265754818916 0.0010730265639722347 -0.0018585359212011099
v 0.04489265754818916 -0.0010730266803875566 -0.0018585359212011099
v 0.04489265754818916 0.0010730265639722347 -0.0018585359212011099
v 0.045175258070230484 0.000893634743988514 -0.0015478212153539062
v 0.04489265754818916 -0.0010730266803875566 -0.0018585359212011099
v 0.04489265754818916 -0.0010730266803875566 -0.0018585359212011099
v 0.045175258070230484 0.000893634743988514 -0.0015478212153539062
v 0.045175258070230484 -0.0008936348604038358 -0.0015478212153539062
v 0.045175258070230484 0.000893634743988514 -0.0015478212153539062
v 0.04540279507637024 0.0006898078136146069 -0.0011947824386879802
v 0.045175258070230484 -0.0008936348604038358 -0.0015478212153539062
v 0.045175258070230484 -0.0008936348604038358 -0.0015478212153539062
v 0.04540279507637024 0.0006898078136146069 -0.0011947824386879802
v 0.04540279507637024 -0.0006898079882375896 -0.0011947824386879802
v 0.04540279507637024 0.0006898078136146069 -0.0011947824386879802
v 0.0455690398812294 0.00046712104813195765 -0.0008090765331871808
v 0.04540279507637024 -0.0006898079882375896 -0.0011947824386879802
v 0.04456271603703499 -0.0024461555294692516 -2.0861627703094854e-10
v 0.04489265754818916 -0.002146053360775113 -2.0861627703094854e-10
v 0.04456271603703499 -0.0012230778811499476 0.002118432894349098
v 0.04489265754818916 -0.002146053360775113 -2.0861627703094854e-10
v 0.04489265754818916 -0.0010730266803875566 0.0018585355719551444
v 0.04456271603703499 -0.0012230778811499476 0.002118432894349098
v 0.04489265754818916 0.0010730265639722347 -0.0018585359212011099
v 0.04456271603703499 0.001223077648319304 -0.002118433127179742
v 0.04489265754818916 0.0021460531279444695 -2.0861627703094854e-10
v 0.04489265754818916 -0.002146053360775113 -2.0861627703094854e-10
v 0.045175258070230484 -0.0017872697208076715 -2.0861627703094854e-10
v 0.04489265754818916 -0.0010730266803875566 0.0018585355719551444
v 0.045175258070230484 -0.0017872697208076715 -2.0861627703094854e-10
v 0.045175258070230484 -0.0008936348604038358 0.0015478208661079407
v 0.04489265754818916 -0.0010730266803875566 0.0018585355719551444
v 0.045175258070230484 0.000893634743988514 -0.0015478212153539062
v 0.04489265754818916 0.0010730265639722347 -0.0018585359212011099
v 0.045175258070230484 0.001787269487977028 -2.0861627703094854e-10
v 0.04489265754818916 0.0010730265639722347 -0.0018585359212011099
v 0.04489265754818916 0.0021460531279444695 -2.0861627703094854e-10
v 0.045175258070230484 0.001787269487977028 -2.0861627703094854e-10
v 0.045175258070230484 -0.0017872697208076715 -2.0861627703094854e-10
v 0.04540279507637024 -0.0013796177227050066 -2.0861627703094854e-10
v 0.045175258070230484 -0.0008936348604038358 0.0015478208661079407
v 0.04540279507637024 -0.0013796177227050066 -2.0861627703094854e-10
v 0.04540279507637024 -0.0006898079882375896 0.001194783952087164
v 0.045175258070230484 -0.0008936348604038358 0.0015478208661079407
v 0.04540279507637024 0.0006898078136146069 -0.0011947824386879802
v 0.045175258070230484 0.000893634743988514 -0.0015478212153539062
v 0.04540279507637024 0.0013796176062896848 -2.0861627703094854e-10
v 0.045175258070230484 0.000893634743988514 -0.0015478212153539062
v 0.045175258070230484 0.001787269487977028 -2.0861627703094854e-10
v 0.04540279507637024 0.0013796176062896848 -2.0861627703094854e-10
v 0.04540279507637024 -0.0013796177227050066 -2.0861627703094854e-10
v 0.0455690398812294 -0.0009342404082417488 -2.0861627703094854e-10
v 0.04540279507637024 -0.0006898079882375896 0.001194783952087164
v 0.0455690398812294 -0.0009342404082417488 -2.0861627703094854e-10
v 0.0455690398812294 -0.00046712119365110993 0.0008090761257335544
v 0.04540279507637024 -0.0006898079882375896 0.001194783952087164
v 0.0455690398812294 0.00046712104813195765 -0.0008090765331871808
v 0.04540279507637024 0.0006898078136146069 -0.0011947824386879802
v 0.0455690398812294 0.000934240291826427 -2.0861627703094854e-10
v 0.04540279507637024 0.0006898078136146069 -0.0011947824386879802
v 0.04540279507637024 0.0013796176062896848 -2.0861627703094854e-10
v 0.0455690398812294 0.000934240291826427 -2.0861627703094854e-10
v 0.045701347291469574 -7.450577654832813e-11 -2.0861627703094854e-10
v 0.04566945135593414 -0.0002316590107511729 -0.00040124531369656324
v 0.04566945135593414 0.00023165886523202062 -0.00040124531369656324
v 0.04566945135593414 -0.0002316590107511729 -0.00040124531369656324
v 0.0455690398812294 -0.00046712119365110993 -0.0008090765331871808
v 0.04566945135593414 0.00023165886523202062 -0.00040124531369656324
v 0.04566945135593414 -0.0002316590107511729 0.000401246827095747
v 0.0455690398812294 -0.00046712119365110993 0.0008090761257335544
v 0.04566945135593414 -0.0004633198550436646 -2.0861623539758511e-10
v 0.0455690398812294 -0.00046712119365110993 0.0008090761257335544
v 0.0455690398812294 -0.0009342404082417488 -2.0861627703094854e-10
v 0.04566945135593414 -0.0004633198550436646 -2.0861623539758511e-10
v 0.04566945135593414 0.0004633197095245123 -2.0861623539758511e-10
v 0.0455690398812294 0.00046712104813195765 -0.0008090765331871808
v 0.0455690398812294 0.000934240291826427 -2.0861627703094854e-10
vn -1 0 0
vn -1 0 0
vn -1 0 0
vn -1 0 0
vn -1 0 0
vn -1 0 0
vn -1 -1.247833635053703e-17 -7.20437007688061e-18
vn -1 -1.247833635053703e-17 -7.20437007688061e-18
vn -1 -1.247833635053703e-17 -7.20437007688061e-18
vn -1 0 1.440874015376122e-17
vn -1 0 1.440874015376122e-17
vn -1 0 1.440874015376122e-17
vn 0.40673663331560783 -0.7911535926225989 -0.45677270496324496
vn 0.40673663331560783 -0.7911535926225989 -0.45677270496324496
vn 0.40673663331560783 -0.7911535926225989 -0.45677270496324496
vn 0.4067367472419405 -0.7911537611605235 -0.4567723116002144
vn 0.4067367472419405 -0.7911537611605235 -0.4567723116002144
vn 0.4067367472419405 -0.7911537611605235 -0.4567723116002144
vn 0.4067366524958551 -0.791153570325931 0.45677272650301476
vn 0.4067366524958551 -0.791153570325931 0.45677272650301476
vn 0.4067366524958551 -0.791153570325931 0.45677272650301476
vn 0.4067365484209477 -0.7911538398181748 0.45677235240278263
vn 0.4067365484209477 -0.7911538398181748 0.45677235240278263
vn 0.4067365484209477 -0.7911538398181748 0.45677235240278263
vn 0.40673665266027326 0 -0.9135454533753186
vn 0.40673665266027326 0 -0.9135454533753186
vn 0.40673665266027326 0 -0.9135454533753186
vn 0.40673665266027326 0 -0.9135454533753186
vn 0.40673665266027326 0 -0.9135454533753186
vn 0.40673665266027326 0 -0.9135454533753186
vn 0.40673665266027326 0 0.9135454533753186
vn 0.40673665266027326 0 0.9135454533753186
vn 0.40673665266027326 0 0.9135454533753186
vn 0.4441820422006938 0 0.895936556563254
vn 0.4441820422006938 0 0.895936556563254
vn 0.4441820422006938 0 0.895936556563254
vn 0.4441820422006938 0 0.895936556563254
vn 0.4441820422006938 0 0.895936556563254
vn 0.4441820422006938 0 0.895936556563254
vn 0.5167474289124012 0 0.8561378946831071
vn 0.5167474289124012 0 0.8561378946831071
vn 0.5167474289124012 0 0.8561378946831071
vn 0.5167474289124012 0 0.8561378946831071
vn 0.5167474289124012 0 0.8561378946831071
vn 0.5167474289124012 0 0.8561378946831071
vn 0.6187890895489594 0 0.785557167019161
vn 0.6187890895489594 0 0.785557167019161
vn 0.6187890895489594 0 0.785557167019161
vn 0.6187890895489594 0 0.785557167019161
vn 0.6187890895489594 0 0.785557167019161
vn 0.6187890895489594 0 0.785557167019161
vn 0.7397829046192763 0 0.6728456390830417
vn 0.7397829046192763 0 0.6728456390830417
vn 0.7397829046192763 0 0.6728456390830417
vn 0.7397829046192763 0 0.6728456390830417
vn 0.7397829046192763 0 0.6728456390830417
vn 0.7397829046192763 0 0.6728456390830417
vn 0.8405446513253199 0 0.541742271867718
vn 0.8405446513253199 0 0.541742271867718
vn 0.8405446513253199 0 0.541742271867718
vn 0.8405446513253199 0 0.541742271867718
vn 0.8405446513253199 0 0.541742271867718
vn 0.8405446513253199 0 0.541742271867718
vn 0.9183314983097688 0 0.39581215142051285
vn 0.9183314983097688 0 0.39581215142051285
vn 0.9183314983097688 0 0.39581215142051285
vn 0.9183314983097688 0 0.39581215142051285
vn 0.9183314983097688 0 0.39581215142051285
vn 0.9183314983097688 0 0.39581215142051285
vn 0.9710023221249879 0 0.23907005338996626
vn 0.9710023221249879 0 0.23907005338996626
vn 0.9710023221249879 0 0.23907005338996626
vn 0.9710023221249879 0 0.23907005338996626
vn 0.9710023221249879 0 0.23907005338996626
vn 0.9710023221249879 0 0.23907005338996626
vn 0.9968554048873434 0 0.07924204532248559
vn 0.9968554048873434 0 0.07924204532248559
vn 0.9968554048873434 0 0.07924204532248559
vn 0.9968553944014129 0.06862568222099356 0.03962118615724473
vn 0.9968553944014129 0.06862568222099356 0.03962118615724473
vn 0.9968553944014129 0.06862568222099356 0.03962118615724473
vn 0.9968553868974446 0.06862568170440415 -0.0396213758487976
vn 0.9968553868974446 0.06862568170440415 -0.0396213758487976
vn 0.9968553868974446 0.06862568170440415 -0.0396213758487976
vn 0.9710027770050886 0.20703871963015458 -0.11953483016389989
vn 0.9710027770050886 0.20703871963015458 -0.11953483016389989
vn 0.9710027770050886 0.20703871963015458 -0.11953483016389989
vn 0.9710025813485915 0 -0.2390690005299144
vn 0.9710025813485915 0 -0.2390690005299144
vn 0.9710025813485915 0 -0.2390690005299144
vn 0.9183307904499046 0 -0.3958137937359602
vn 0.9183307904499046 0 -0.3958137937359602
vn 0.9183307904499046 0 -0.3958137937359602
vn 0.40673665266027326 0 0.9135454533753186
vn 0.40673665266027326 0 0.9135454533753186
vn 0.40673665266027326 0 0.9135454533753186
vn 0.40673662208700956 0.7911535691461692 -0.456772755624202
vn 0.40673662208700956 0.7911535691461692 -0.456772755624202
vn 0.40673662208700956 0.7911535691461692 -0.456772755624202
vn 0.4067367583156533 0.7911537827002777 -0.4567722644315386
vn 0.4067367583156533 0.7911537827002777 -0.4567722644315386
vn 0.4067367583156533 0.7911537827002777 -0.4567722644315386
vn 0.4441872617440895 0.7759018084611579 -0.44796658372136683
vn 0.4441872617440895 0.7759018084611579 -0.44796658372136683
vn 0.4441872617440895 0.7759018084611579 -0.44796658372136683
vn 0.44418036652090254 0.775904471653274 -0.447968807916143
vn 0.44418036652090254 0.775904471653274 -0.447968807916143
vn 0.44418036652090254 0.775904471653274 -0.447968807916143
vn 0.5167445402286039 0.7414386074220483 -0.42806993770642515
vn 0.5167445402286039 0.7414386074220483 -0.42806993770642515
vn 0.5167445402286039 0.7414386074220483 -0.42806993770642515
vn 0.5167456747284285 0.7414380738665535 -0.4280694923380039
vn 0.5167456747284285 0.7414380738665535 -0.4280694923380039
vn 0.5167456747284285 0.7414380738665535 -0.4280694923380039
vn 0.6187875888225061 0.6803134703250763 -0.3927792026234087
vn 0.6187875888225061 0.6803134703250763 -0.3927792026234087
vn 0.6187875888225061 0.6803134703250763 -0.3927792026234087
vn 0.40673652908581526 0.7911538601781791 0.4567723343553001
vn 0.40673652908581526 0.7911538601781791 0.4567723343553001
vn 0.40673652908581526 0.7911538601781791 0.4567723343553001
vn 0.4441872856663444 0.7759017981899152 0.44796657779126925
vn 0.4441872856663444 0.7759017981899152 0.44796657779126925
vn 0.4441872856663444 0.7759017981899152 0.44796657779126925
vn 0.44418036652090254 0.775904471653274 0.447968807916143
vn 0.44418036652090254 0.775904471653274 0.447968807916143
vn 0.44418036652090254 0.775904471653274 0.447968807916143
vn 0.5167441395283202 0.7414388099568631 0.4280700706109766
vn 0.5167441395283202 0.7414388099568631 0.4280700706109766
vn 0.5167441395283202 0.7414388099568631 0.4280700706109766
vn 0.516745681320793 0.7414380833254234 0.42806946799676315
vn 0.516745681320793 0.7414380833254234 0.42806946799676315
vn 0.516745681320793 0.7414380833254234 0.42806946799676315
vn 0.618788172384426 0.6803130989713635 0.39277892647788776
vn 0.618788172384426 0.6803130989713635 0.39277892647788776
vn 0.618788172384426 0.6803130989713635 0.39277892647788776
vn 0.6187875230669125 0.6803134635625399 0.3927793179283449
vn 0.6187875230669125 0.6803134635625399 0.3927793179283449
vn 0.6187875230669125 0.6803134635625399 0.3927793179283449
vn 0.7397835126308532 0.5827007788642561 0.3364225865641989
vn 0.7397835126308532 0.5827007788642561 0.3364225865641989
vn 0.7397835126308532 0.5827007788642561 0.3364225865641989
vn 0.739784046604131 0.5827003596873919 0.33642213840679547
vn 0.739784046604131 0.5827003596873919 0.33642213840679547
vn 0.739784046604131 0.5827003596873919 0.33642213840679547
vn 0.840545232753241 0.4691618060844423 0.27087065438578617
vn 0.840545232753241 0.4691618060844423 0.27087065438578617
vn 0.840545232753241 0.4691618060844423 0.27087065438578617
vn 0.8405445633098964 0.46916254344414415 0.27087145460383427
vn 0.8405445633098964 0.46916254344414415 0.27087145460383427
vn 0.8405445633098964 0.46916254344414415 0.27087145460383427
vn 0.9183309791077399 0.3427843197079887 0.19790685428592697
vn 0.9183309791077399 0.3427843197079887 0.19790685428592697
vn 0.9183309791077399 0.3427843197079887 0.19790685428592697
vn 0.9183316874319177 0.3427832144347183 0.19790548188528892
vn 0.9183316874319177 0.3427832144347183 0.19790548188528892
vn 0.9183316874319177 0.3427832144347183 0.19790548188528892
vn 0.9710025006579223 0.20704024636253512 0.1195344306139547
vn 0.9710025006579223 0.20704024636253512 0.1195344306139547
vn 0.9710025006579223 0.20704024636253512 0.1195344306139547
vn 0.9710022615767203 0.20704078266304 0.11953544381132372
vn 0.9710022615767203 0.20704078266304 0.11953544381132372
vn 0.9710022615767203 0.20704078266304 0.11953544381132372
vn 0.4067366469589944 0.7911535595560457 0.4567727500873413
vn 0.4067366469589944 0.7911535595560457 0.4567727500873413
vn 0.4067366469589944 0.7911535595560457 0.4567727500873413
vn 0.44418048678225414 -0.7759047119096192 -0.44796827253537785
vn 0.44418048678225414 -0.7759047119096192 -0.44796827253537785
vn 0.44418048678225414 -0.7759047119096192 -0.44796827253537785
vn 0.44418048678225414 -0.7759047119096192 0.44796827253537785
vn 0.44418048678225414 -0.7759047119096192 0.44796827253537785
vn 0.44418048678225414 -0.7759047119096192 0.44796827253537785
vn 0.4441874217906699 -0.7759014180506817 0.44796710123612715
vn 0.4441874217906699 -0.7759014180506817 0.44796710123612715
vn 0.4441874217906699 -0.7759014180506817 0.44796710123612715
vn 0.4441820422006938 0 -0.895936556563254
vn 0.4441820422006938 0 -0.895936556563254
vn 0.4441820422006938 0 -0.895936556563254
vn 0.4441874277207761 -0.7759014284093222 -0.44796707741437175
vn 0.4441874277207761 -0.7759014284093222 -0.44796707741437175
vn 0.4441874277207761 -0.7759014284093222 -0.44796707741437175
vn 0.5167463349368437 -0.7414376631730061 -0.4280694067063086
vn 0.5167463349368437 -0.7414376631730061 -0.4280694067063086
vn 0.5167463349368437 -0.7414376631730061 -0.4280694067063086
vn 0.4441820422006938 0 -0.895936556563254
vn 0.4441820422006938 0 -0.895936556563254
vn 0.4441820422006938 0 -0.895936556563254
vn 0.5167482515078679 0 -0.8561373981806667
vn 0.5167482515078679 0 -0.8561373981806667
vn 0.5167482515078679 0 -0.8561373981806667
vn 0.5167463349368437 -0.7414376631730061 0.4280694067063086
vn 0.5167463349368437 -0.7414376631730061 0.4280694067063086
vn 0.5167463349368437 -0.7414376631730061 0.4280694067063086
vn 0.5167437164646445 -0.7414391592180127 0.4280699763734818
vn 0.5167437164646445 -0.7414391592180127 0.4280699763734818
vn 0.5167437164646445 -0.7414391592180127 0.4280699763734818
vn 0.5167441334092825 -0.7414389203863869 -0.42806988672804175
vn 0.5167441334092825 -0.7414389203863869 -0.42806988672804175
vn 0.5167441334092825 -0.7414389203863869 -0.42806988672804175
vn 0.6187882487449979 -0.6803130577886545 -0.3927788775091516
vn 0.6187882487449979 -0.6803130577886545 -0.3927788775091516
vn 0.6187882487449979 -0.6803130577886545 -0.3927788775091516
vn 0.6187872276641151 -0.6803136452574481 -0.3927794686032885
vn 0.6187872276641151 -0.6803136452574481 -0.3927794686032885
vn 0.6187872276641151 -0.6803136452574481 -0.3927794686032885
vn 0.7397835052136545 -0.5827007730219964 -0.3364226129934889
vn 0.7397835052136545 -0.5827007730219964 -0.3364226129934889
vn 0.7397835052136545 -0.5827007730219964 -0.3364226129934889
vn 0.7397840047855516 -0.5827003736968138 -0.33642220609978224
vn 0.7397840047855516 -0.5827003736968138 -0.33642220609978224
vn 0.7397840047855516 -0.5827003736968138 -0.33642220609978224
vn 0.8405458570737648 -0.4691609575986208 -0.27087018666009655
vn 0.8405458570737648 -0.4691609575986208 -0.27087018666009655
vn 0.8405458570737648 -0.4691609575986208 -0.27087018666009655
vn 0.8405445299406461 -0.46916240907620965 -0.27087179088392604
vn 0.8405445299406461 -0.46916240907620965 -0.27087179088392604
vn 0.8405445299406461 -0.46916240907620965 -0.27087179088392604
vn 0.918330688783364 -0.3427847696165762 -0.1979074221892221
vn 0.918330688783364 -0.3427847696165762 -0.1979074221892221
vn 0.918330688783364 -0.3427847696165762 -0.1979074221892221
vn 0.9183316901400975 -0.34278321544559337 -0.19790546756775512
vn 0.9183316901400975 -0.34278321544559337 -0.19790546756775512
vn 0.9183316901400975 -0.34278321544559337 -0.19790546756775512
vn 0.9710026314690473 -0.2070397869003219 -0.11953416382128923
vn 0.9710026314690473 -0.2070397869003219 -0.11953416382128923
vn 0.9710026314690473 -0.2070397869003219 -0.11953416382128923
vn 0.9710021881749149 -0.20704079243028606 -0.11953602314518609
vn 0.9710021881749149 -0.20704079243028606 -0.11953602314518609
vn 0.9710021881749149 -0.20704079243028606 -0.11953602314518609
vn 0.9968553868974446 -0.06862568170440415 -0.0396213758487976
vn 0.9968553868974446 -0.06862568170440415 -0.0396213758487976
vn 0.9968553868974446 -0.06862568170440415 -0.0396213758487976
vn 0.9968553944014129 -0.06862568222099356 0.03962118615724473
vn 0.9968553944014129 -0.06862568222099356 0.03962118615724473
vn 0.9968553944014129 -0.06862568222099356 0.03962118615724473
vn 0.5167482515078679 0 -0.8561373981806667
vn 0.5167482515078679 0 -0.8561373981806667
vn 0.5167482515078679 0 -0.8561373981806667
vn 0.6187888922824345 0 -0.7855573224073961
vn 0.6187888922824345 0 -0.7855573224073961
vn 0.6187888922824345 0 -0.7855573224073961
vn 0.6187888922824345 0 -0.7855573224073961
vn 0.6187888922824345 0 -0.7855573224073961
vn 0.6187888922824345 0 -0.7855573224073961
vn 0.7397829046192763 0 -0.6728456390830417
vn 0.7397829046192763 0 -0.6728456390830417
vn 0.7397829046192763 0 -0.6728456390830417
vn 0.7397829046192763 0 -0.6728456390830417
vn 0.7397829046192763 0 -0.6728456390830417
vn 0.7397829046192763 0 -0.6728456390830417
vn 0.8405459589805112 0 -0.5417402429592365
vn 0.8405459589805112 0 -0.5417402429592365
vn 0.8405459589805112 0 -0.5417402429592365
vn 0.8405459589805112 0 -0.5417402429592365
vn 0.8405459589805112 0 -0.5417402429592365
vn 0.8405459589805112 0 -0.5417402429592365
vn 0.9183307904499046 0 -0.3958137937359602
vn 0.9183307904499046 0 -0.3958137937359602
vn 0.9183307904499046 0 -0.3958137937359602
vn 0.6187872973014334 -0.6803137158923216 0.3927792365530144
vn 0.6187872973014334 -0.6803137158923216 0.3927792365530144
vn 0.6187872973014334 -0.6803137158923216 0.3927792365530144
vn 0.6187883613675955 -0.6803128717331274 0.3927790223398285
vn 0.6187883613675955 -0.6803128717331274 0.3927790223398285
vn 0.6187883613675955 -0.6803128717331274 0.3927790223398285
vn 0.6187881244772502 0.6803130522272447 -0.39277908291452773
vn 0.6187881244772502 0.6803130522272447 -0.39277908291452773
vn 0.6187881244772502 0.6803130522272447 -0.39277908291452773
vn 0.7397839933934853 -0.5827003051190623 0.3364223499307666
vn 0.7397839933934853 -0.5827003051190623 0.3364223499307666
vn 0.7397839933934853 -0.5827003051190623 0.3364223499307666
vn 0.7397834565103657 -0.5827009008178886 0.3364224987416815
vn 0.7397834565103657 -0.5827009008178886 0.3364224987416815
vn 0.7397834565103657 -0.5827009008178886 0.3364224987416815
vn 0.7397834639275616 0.5827009066601477 -0.33642247231238886
vn 0.7397834639275616 0.5827009066601477 -0.33642247231238886
vn 0.7397834639275616 0.5827009066601477 -0.33642247231238886
vn 0.7397840008106832 0.5827003109613129 -0.3364223235014709
vn 0.7397840008106832 0.5827003109613129 -0.3364223235014709
vn 0.7397840008106832 0.5827003109613129 -0.3364223235014709
vn 0.8405447100110826 -0.469162499184512 0.27087107603309735
vn 0.8405447100110826 -0.469162499184512 0.27087107603309735
vn 0.8405447100110826 -0.469162499184512 0.27087107603309735
vn 0.8405452850168257 -0.4691615933706759 0.27087086063634036
vn 0.8405452850168257 -0.4691615933706759 0.27087086063634036
vn 0.8405452850168257 -0.4691615933706759 0.27087086063634036
vn 0.8405460788544965 0.46916032246322587 -0.2708705985309818
vn 0.8405460788544965 0.46916032246322587 -0.2708705985309818
vn 0.8405460788544965 0.46916032246322587 -0.2708705985309818
vn 0.8405446504748401 0.4691625886296603 -0.27087110585746343
vn 0.8405446504748401 0.4691625886296603 -0.27087110585746343
vn 0.8405446504748401 0.4691625886296603 -0.27087110585746343
vn 0.9183315508525162 -0.3427831781487004 0.19790617849650127
vn 0.9183315508525162 -0.3427831781487004 0.19790617849650127
vn 0.9183315508525162 -0.3427831781487004 0.19790617849650127
vn 0.9183308486315486 -0.34278491154885365 0.19790643462531593
vn 0.9183308486315486 -0.34278491154885365 0.19790643462531593
vn 0.9183308486315486 -0.34278491154885365 0.19790643462531593
vn 0.9183304889093183 0.3427856260228281 -0.19790686630764073
vn 0.9183304889093183 0.3427856260228281 -0.19790686630764073
vn 0.9183304889093183 0.3427856260228281 -0.19790686630764073
vn 0.9183314913156484 0.34278314837167706 -0.19790650633664925
vn 0.9183314913156484 0.34278314837167706 -0.19790650633664925
vn 0.9183314913156484 0.34278314837167706 -0.19790650633664925
vn 0.9968553748715954 0 -0.07924242291608248
vn 0.9968553748715954 0 -0.07924242291608248
vn 0.9968553748715954 0 -0.07924242291608248
vn 0.9710025813485915 0 -0.2390690005299144
vn 0.9710025813485915 0 -0.2390690005299144
vn 0.9710025813485915 0 -0.2390690005299144
vn 0.971002581517476 -0.20703965484812503 0.11953479830897232
vn 0.971002581517476 -0.20703965484812503 0.11953479830897232
vn 0.971002581517476 -0.20703965484812503 0.11953479830897232
vn 0.9710023385518188 -0.20704081616915632 0.11953476049630353
vn 0.9710023385518188 -0.20704081616915632 0.11953476049630353
vn 0.9710023385518188 -0.20704081616915632 0.11953476049630353
vn 0.9710023415475053 0.20704080190674679 -0.11953476086508602
vn 0.9710023415475053 0.20704080190674679 -0.11953476086508602
vn 0.9710023415475053 0.20704080190674679 -0.11953476086508602
f 1//1 2//2 3//3
f 4//4 5//5 6//6
f 7//7 8//8 9//9
f 10//10 11//11 12//12
f 13//13 14//14 15//15
f 16//16 17//17 18//18
f 19//19 20//20 21//21
f 22//22 23//23 24//24
f 25//25 26//26 27//27
f 28//28 29//29 30//30
f 31//31 32//32 33//33
f 34//34 35//35 36//36
f 37//37 38//38 39//39
f 40//40 41//41 42//42
f 43//43 44//44 45//45
f 46//46 47//47 48//48
f 49//49 50//50 51//51
f 52//52 53//53 54//54
f 55//55 56//56 57//57
f 58//58 59//59 60//60
f 61//61 62//62 63//63
f 64//64 65//65 66//66
f 67//67 68//68 69//69
f 70//70 71//71 72//72
f 73//73 74//74 75//75
f 76//76 77//77 78//78
f 79//79 80//80 81//81
f 82//82 83//83 84//84
f 85//85 86//86 87//87
f 88//88 89//89 90//90
f 91//91 92//92 93//93
f 94//94 95//95 96//96
f 97//97 98//98 99//99
f 100//100 101//101 102//102
f 103//103 104//104 105//105
f 106//106 107//107 108//108
f 109//109 110//110 111//111
f 112//112 113//113 114//114
f 115//115 116//116 117//117
f 118//118 119//119 120//120
f 121//121 122//122 123//123
f 124//124 125//125 126//126
f 127//127 128//128 129//129
f 130//130 131//131 132//132
f 133//133 134//134 135//135
f 136//136 137//137 138//138
f 139//139 140//140 141//141
f 142//142 143//143 144//144
f 145//145 146//146 147//147
f 148//148 149//149 150//150
f 151//151 152//152 153//153
f 154//154 155//155 156//156
f 157//157 158//158 159//159
f 160//160 161//161 162//162
f 163//163 164//164 165//165
f 166//166 167//167 168//168
f 169//169 170//170 171//171
f 172//172 173//173 174//174
f 175//175 176//176 177//177
f 178//178 179//179 180//180
f 181//181 182//182 183//183
f 184//184 185//185 186//186
f 187//187 188//188 189//189
f 190//190 191//191 192//192
f 193//193 194//194 195//195
f 196//196 197//197 198//198
f 199//199 200//200 201//201
f 202//202 203//203 204//204
f 205//205 206//206 207//207
f 208//208 209//209 210//210
f 211//211 212//212 213//213
f 214//214 215//215 216//216
f 217//217 218//218 219//219
f 220//220 221//221 222//222
f 223//223 224//224 225//225
f 226//226 227//227 228//228
f 229//229 230//230 231//231
f 232//232 233//233 234//234
f 235//235 236//236 237//237
f 238//238 239//239 240//240
f 241//241 242//242 243//243
f 244//244 245//245 246//246
f 247//247 248//248 249//249
f 250//250 251//251 252//252
f 253//253 254//254 255//255
f 256//256 257//257 258//258
f 259//259 260//260 261//261
f 262//262 263//263 264//264
f 265//265 266//266 267//267
f 268//268 269//269 270//270
f 271//271 272//272 273//273
f 274//274 275//275 276//276
f 277//277 278//278 279//279
f 280//280 281//281 282//282
f 283//283 284//284 285//285
f 286//286 287//287 288//288
f 289//289 290//290 291//291
f 292//292 293//293 294//294
f 295//295 296//296 297//297
f 298//298 299//299 300//300
f 301//301 302//302 303//303
f 304//304 305//305 306//306
f 307//307 308//308 309//309
f 310//310 311//311 312//312
f 313//313 314//314 315//315
f 316//316 317//317 318//318
